<mxfile host="app.diagrams.net" agent="Mozilla/5.0 (Windows NT 10.0; Win64; x64) AppleWebKit/537.36 (KHTML, like Gecko) Chrome/133.0.0.0 Safari/537.36" version="26.0.16">
  <diagram id="C5RBs43oDa-KdzZeNtuy" name="Page-1">
    <mxGraphModel dx="880" dy="468" grid="1" gridSize="10" guides="1" tooltips="1" connect="1" arrows="1" fold="1" page="1" pageScale="1" pageWidth="827" pageHeight="1169" math="0" shadow="0">
      <root>
        <mxCell id="WIyWlLk6GJQsqaUBKTNV-0" />
        <mxCell id="WIyWlLk6GJQsqaUBKTNV-1" parent="WIyWlLk6GJQsqaUBKTNV-0" />
        <mxCell id="pB8M39qH9kSYK9Ixvafu-13" style="edgeStyle=orthogonalEdgeStyle;rounded=0;orthogonalLoop=1;jettySize=auto;html=1;" edge="1" parent="WIyWlLk6GJQsqaUBKTNV-1" source="pB8M39qH9kSYK9Ixvafu-0" target="pB8M39qH9kSYK9Ixvafu-2">
          <mxGeometry relative="1" as="geometry" />
        </mxCell>
        <mxCell id="pB8M39qH9kSYK9Ixvafu-0" value="Cadastro" style="rounded=1;whiteSpace=wrap;html=1;" vertex="1" parent="WIyWlLk6GJQsqaUBKTNV-1">
          <mxGeometry x="80" y="120" width="120" height="60" as="geometry" />
        </mxCell>
        <mxCell id="pB8M39qH9kSYK9Ixvafu-15" style="edgeStyle=orthogonalEdgeStyle;rounded=0;orthogonalLoop=1;jettySize=auto;html=1;" edge="1" parent="WIyWlLk6GJQsqaUBKTNV-1" source="pB8M39qH9kSYK9Ixvafu-1" target="pB8M39qH9kSYK9Ixvafu-3">
          <mxGeometry relative="1" as="geometry" />
        </mxCell>
        <mxCell id="pB8M39qH9kSYK9Ixvafu-1" value="OrÃ§amento" style="rounded=1;whiteSpace=wrap;html=1;" vertex="1" parent="WIyWlLk6GJQsqaUBKTNV-1">
          <mxGeometry x="490" y="120" width="120" height="60" as="geometry" />
        </mxCell>
        <mxCell id="pB8M39qH9kSYK9Ixvafu-14" style="edgeStyle=orthogonalEdgeStyle;rounded=0;orthogonalLoop=1;jettySize=auto;html=1;" edge="1" parent="WIyWlLk6GJQsqaUBKTNV-1" source="pB8M39qH9kSYK9Ixvafu-2" target="pB8M39qH9kSYK9Ixvafu-1">
          <mxGeometry relative="1" as="geometry" />
        </mxCell>
        <mxCell id="pB8M39qH9kSYK9Ixvafu-2" value="Selecionar Carro" style="rounded=1;whiteSpace=wrap;html=1;" vertex="1" parent="WIyWlLk6GJQsqaUBKTNV-1">
          <mxGeometry x="290" y="120" width="120" height="60" as="geometry" />
        </mxCell>
        <mxCell id="pB8M39qH9kSYK9Ixvafu-11" style="edgeStyle=orthogonalEdgeStyle;rounded=0;orthogonalLoop=1;jettySize=auto;html=1;" edge="1" parent="WIyWlLk6GJQsqaUBKTNV-1" source="pB8M39qH9kSYK9Ixvafu-3" target="pB8M39qH9kSYK9Ixvafu-4">
          <mxGeometry relative="1" as="geometry" />
        </mxCell>
        <mxCell id="pB8M39qH9kSYK9Ixvafu-3" value="Simular Financiamento" style="rounded=1;whiteSpace=wrap;html=1;" vertex="1" parent="WIyWlLk6GJQsqaUBKTNV-1">
          <mxGeometry x="490" y="240" width="120" height="60" as="geometry" />
        </mxCell>
        <mxCell id="pB8M39qH9kSYK9Ixvafu-4" value="Compra" style="rounded=1;whiteSpace=wrap;html=1;" vertex="1" parent="WIyWlLk6GJQsqaUBKTNV-1">
          <mxGeometry x="490" y="360" width="120" height="60" as="geometry" />
        </mxCell>
      </root>
    </mxGraphModel>
  </diagram>
</mxfile>
